<svg width="24" height="24" viewBox="0 0 24 24" fill="none" xmlns="http://www.w3.org/2000/svg">
<path d="M17.73 12.0001L21.71 8.04006C22.1 7.65006 22.1 7.00006 21.71 6.63006L17.37 2.29006C17 1.90006 16.35 1.90006 15.96 2.29006L12 6.27006L7.99999 2.29006C7.79999 2.10006 7.54999 2.00006 7.28999 2.00006C7.03999 2.00006 6.77999 2.10006 6.58999 2.29006L2.24999 6.63006C1.85999 7.00006 1.85999 7.65006 2.24999 8.04006L6.22999 12.0001L2.24999 16.0001C1.85999 16.3901 1.85999 17.0001 2.24999 17.4101L6.58999 21.7501C6.99999 22.1401 7.60999 22.1401 7.99999 21.7501L12 17.7701L15.96 21.7501C16.16 21.9501 16.41 22.0401 16.67 22.0401C16.93 22.0401 17.18 21.9401 17.38 21.7501L21.72 17.4101C22.11 17.0001 22.11 16.3901 21.72 16.0001L17.73 12.0001ZM12 9.00006C12.2652 9.00006 12.5196 9.10542 12.7071 9.29295C12.8946 9.48049 13 9.73484 13 10.0001C13 10.2653 12.8946 10.5196 12.7071 10.7072C12.5196 10.8947 12.2652 11.0001 12 11.0001C11.7348 11.0001 11.4804 10.8947 11.2929 10.7072C11.1053 10.5196 11 10.2653 11 10.0001C11 9.73484 11.1053 9.48049 11.2929 9.29295C11.4804 9.10542 11.7348 9.00006 12 9.00006ZM7.28999 10.9601L3.65999 7.34006L7.28999 3.71006L10.91 7.33006L7.28999 10.9601ZM9.99999 13.0001C9.73477 13.0001 9.48042 12.8947 9.29288 12.7072C9.10535 12.5196 8.99999 12.2653 8.99999 12.0001C8.99999 11.7348 9.10535 11.4805 9.29288 11.293C9.48042 11.1054 9.73477 11.0001 9.99999 11.0001C10.2652 11.0001 10.5196 11.1054 10.7071 11.293C10.8946 11.4805 11 11.7348 11 12.0001C11 12.2653 10.8946 12.5196 10.7071 12.7072C10.5196 12.8947 10.2652 13.0001 9.99999 13.0001ZM12 15.0001C11.7348 15.0001 11.4804 14.8947 11.2929 14.7072C11.1053 14.5196 11 14.2653 11 14.0001C11 13.7348 11.1053 13.4805 11.2929 13.293C11.4804 13.1054 11.7348 13.0001 12 13.0001C12.2652 13.0001 12.5196 13.1054 12.7071 13.293C12.8946 13.4805 13 13.7348 13 14.0001C13 14.2653 12.8946 14.5196 12.7071 14.7072C12.5196 14.8947 12.2652 15.0001 12 15.0001ZM14 11.0001C14.2652 11.0001 14.5196 11.1054 14.7071 11.293C14.8946 11.4805 15 11.7348 15 12.0001C15 12.2653 14.8946 12.5196 14.7071 12.7072C14.5196 12.8947 14.2652 13.0001 14 13.0001C13.7348 13.0001 13.4804 12.8947 13.2929 12.7072C13.1053 12.5196 13 12.2653 13 12.0001C13 11.7348 13.1053 11.4805 13.2929 11.293C13.4804 11.1054 13.7348 11.0001 14 11.0001ZM16.66 20.3401L13.03 16.7201L16.66 13.0901L20.28 16.7101L16.66 20.3401Z" fill="black"/>
</svg>
