<svg width="24" height="24" viewBox="0 0 24 24" fill="none" xmlns="http://www.w3.org/2000/svg">
<path d="M20.84 2.17993L16.91 2.95993L19.65 6.49993L21.62 6.09993L20.84 2.17993ZM13.97 3.53993L12 3.92993L14.75 7.45993L16.71 7.06993L13.97 3.53993ZM9.06999 4.49993L7.09999 4.90993L9.84999 8.43993L11.81 8.04993L9.06999 4.49993ZM4.15999 5.49993L3.17999 5.68993C2.66038 5.79375 2.2032 6.09953 1.90884 6.54014C1.61447 6.98074 1.50699 7.52015 1.60999 8.03993L1.99999 9.99993L6.89999 9.02993L4.15999 5.49993ZM1.99999 9.99993V19.9999C1.99999 21.1099 2.89999 21.9999 3.99999 21.9999H20C21.11 21.9999 22 21.1099 22 19.9999V9.99993H1.99999Z" fill="black"/>
</svg>
