<?xml version="1.0" encoding="utf-8"?>
<!-- Generator: Adobe Illustrator 15.0.0, SVG Export Plug-In . SVG Version: 6.00 Build 0)  -->
<!DOCTYPE svg PUBLIC "-//W3C//DTD SVG 1.1//EN" "http://www.w3.org/Graphics/SVG/1.1/DTD/svg11.dtd">
<svg version="1.1" id="Layer_1" xmlns="http://www.w3.org/2000/svg" xmlns:xlink="http://www.w3.org/1999/xlink" x="0px"
     y="0px"
     width="400px" height="400px" viewBox="0 0 400 400" enable-background="new 0 0 400 400" xml:space="preserve">
<path fill="#65DDA7" d="M244.844,25.703c20.313,4.063,33.516,23.828,29.453,44.141L272.5,78.75
	c-4.141,20.859-11.797,40.703-22.5,58.75h112.5c20.703,0,37.5,16.797,37.5,37.5c0,14.453-8.203,27.031-20.234,33.281
	c8.516,6.875,13.984,17.422,13.984,29.219c0,18.281-13.125,33.516-30.391,36.797c3.438,5.703,5.391,12.344,5.391,19.453
	c0,16.641-10.859,30.781-25.859,35.625c0.547,2.578,0.859,5.313,0.859,8.125c0,20.703-16.797,37.5-37.5,37.5h-76.172
	c-14.844,0-29.297-4.375-41.641-12.578l-30.078-20.078C137.5,328.438,125,305,125,279.922V250v-37.5v-19.453
	c0-22.813,10.391-44.297,28.125-58.594l5.781-4.609c20.703-16.563,34.844-39.844,40-65.781l1.797-8.906
	C204.766,34.844,224.531,21.641,244.844,25.703z M25,150h50c13.828,0,25,11.172,25,25v175c0,13.828-11.172,25-25,25H25
	c-13.828,0-25-11.172-25-25V175C0,161.172,11.172,150,25,150z"/>
</svg>
