<svg width="24" height="24" viewBox="0 0 24 24" fill="none" xmlns="http://www.w3.org/2000/svg">
<path d="M13.3 2.79004L9.8 6.29004L10.5 7.00004L11.9 5.61004L13 6.71004V9.00004C13 10.11 12.11 11 11 11H10.46C11.4483 12.0983 11.9967 13.5226 12 15C11.998 15.3353 11.9679 15.6698 11.91 16H15.03C15.1529 14.9004 15.6768 13.8845 16.5013 13.1466C17.3259 12.4088 18.3935 12.0006 19.5 12C20.3902 12.0005 21.2602 12.265 22 12.76V8.00004C22 6.89004 21.11 6.00004 20 6.00004H13.71L12.61 4.90004L14 3.50004L13.3 2.79004ZM4 7.00004C3.45 7.00004 3 7.45004 3 8.00004C3 8.55004 3.45 9.00004 4 9.00004H9C9 7.90004 8.11 7.00004 7 7.00004H4ZM6 10C5.47004 10.0002 4.94346 10.0846 4.44 10.25L4.8 11.18L4.33 11.36L4 10.43C2.93708 10.8917 2.06753 11.7082 1.54 12.74L2.45 13.15L2.24 13.6L1.34 13.2C1.11679 13.774 1.00152 14.3842 1 15C1.00013 15.53 1.08452 16.0566 1.25 16.56L2.18 16.2L2.36 16.67L1.43 17C1.89166 18.063 2.70819 18.9325 3.74 19.46L4.14 18.55L4.6 18.76L4.2 19.66C4.77394 19.8833 5.38418 19.9985 6 20C6.52996 19.9999 7.05654 19.9155 7.56 19.75L7.2 18.82L7.67 18.64L8 19.57C9.06292 19.1084 9.93247 18.2918 10.46 17.26L9.55 16.86L9.76 16.4L10.66 16.8C10.8832 16.2261 10.9985 15.6159 11 15C10.9999 14.4701 10.9155 13.9435 10.75 13.44L9.82 13.8L9.64 13.33L10.57 13C10.1083 11.9371 9.29181 11.0676 8.26 10.54L7.86 11.45L7.4 11.24L7.8 10.34C7.22606 10.1168 6.61582 10.0016 6 10ZM6 12C6.79565 12 7.55871 12.3161 8.12132 12.8787C8.68393 13.4413 9 14.2044 9 15C9 15.7957 8.68393 16.5588 8.12132 17.1214C7.55871 17.684 6.79565 18 6 18C5.20435 18 4.44129 17.684 3.87868 17.1214C3.31607 16.5588 3 15.7957 3 15C3 14.2044 3.31607 13.4413 3.87868 12.8787C4.44129 12.3161 5.20435 12 6 12ZM19.5 13C18.5717 13 17.6815 13.3688 17.0251 14.0252C16.3687 14.6815 16 15.5718 16 16.5C16 17.4283 16.3687 18.3185 17.0251 18.9749C17.6815 19.6313 18.5717 20 19.5 20C20.4283 20 21.3185 19.6313 21.9749 18.9749C22.6313 18.3185 23 17.4283 23 16.5C23 15.5718 22.6313 14.6815 21.9749 14.0252C21.3185 13.3688 20.4283 13 19.5 13ZM19.5 15C19.8978 15 20.2794 15.1581 20.5607 15.4394C20.842 15.7207 21 16.1022 21 16.5C21 16.8979 20.842 17.2794 20.5607 17.5607C20.2794 17.842 19.8978 18 19.5 18C19.1022 18 18.7206 17.842 18.4393 17.5607C18.158 17.2794 18 16.8979 18 16.5C18 16.1022 18.158 15.7207 18.4393 15.4394C18.7206 15.1581 19.1022 15 19.5 15Z" fill="black"/>
</svg>
